<svg height='100px' width='100px'  fill="#FFFFFF" xmlns="http://www.w3.org/2000/svg" xmlns:xlink="http://www.w3.org/1999/xlink" version="1.1" x="0px" y="0px" viewBox="0 0 50.4 50.4" enable-background="new 0 0 50.4 50.4" xml:space="preserve"><g><path d="M25.067,8.565c2.913,0,5.281,2.365,5.281,5.282c0,2.916-2.368,5.274-5.281,5.274c-2.912,0-5.274-2.359-5.274-5.274   C19.793,10.93,22.156,8.565,25.067,8.565z"></path><path d="M47.642,26.734c-1.322-0.686-2.949-0.167-3.634,1.156l-1.336,2.581l-7.694-8.417c-0.159-0.174-0.34-0.313-0.528-0.436   c-0.737-0.605-1.956-1.038-3.883-1.159H28.43v16.276h-6.582V20.459L9.415,20.478l5.501-9.848c0.701-1.254,0.365-2.799-0.718-3.671   l10.99-5.295c0.412-0.199,0.585-0.695,0.386-1.108c-0.198-0.413-0.691-0.586-1.108-0.387L11.12,6.599   c-0.004,0.001-0.006,0.005-0.01,0.007c-0.516,0.25-0.965,0.652-1.266,1.191L1.926,21.973c-0.502,0.9-0.49,2,0.032,2.888   c0.522,0.888,1.475,1.433,2.504,1.433c0.002,0,10.269-0.016,10.269-0.016v10.458h-4.094l1.493,12.024H5.257v1.64h39.556v-1.64   h-6.735l1.493-12.024h-4.133v-6.186l5.863,6.414c0.514,0.563,1.238,0.878,1.99,0.878c0.117,0,0.235-0.008,0.354-0.024   c0.873-0.115,1.636-0.65,2.041-1.435l3.111-6.016C49.482,29.046,48.965,27.418,47.642,26.734z M37.692,38.396l-1.289,10.365H13.804   l-1.289-10.365H37.692z"></path></g></svg>